<svg width="534" height="536" viewBox="0 0 534 536" fill="none" xmlns="http://www.w3.org/2000/svg">
<path d="M267.364 535.05C124.923 534.927 7.56173 423.031 0.430407 280.547C-6.70092 138.062 98.8991 14.9724 240.614 0.583008V108.821C160.113 122.447 102.689 194.48 107.242 276.122C111.796 357.765 176.874 422.944 258.389 427.505C339.905 432.065 411.826 374.551 425.43 293.925H533.5C519.584 430.738 404.645 534.865 267.337 535.05H267.364ZM533.527 240.342H425.457C414.073 172.979 361.374 120.209 294.114 108.821V0.583008C420.563 13.5497 520.539 113.67 533.5 240.315L533.527 240.342Z" fill="white"/>
</svg>
